<svg width="33" height="47" viewBox="0 0 33 47" fill="none" xmlns="http://www.w3.org/2000/svg">
<path d="M30.4398 21.7903C33.8241 25.1725 33.8241 30.6607 30.4398 34.045L18.183 46.3018C17.338 47.1468 15.9643 47.1468 15.1193 46.3018L2.86252 34.045C-0.521881 30.6607 -0.521881 25.1725 2.86252 21.7882C6.24682 18.4038 11.735 18.4038 15.1193 21.7882L16.649 23.32L18.183 21.7882C21.5673 18.4038 27.0555 18.4038 30.4398 21.7882V21.7903ZM5.92612 24.8497C4.23612 26.5418 4.23612 29.287 5.92612 30.9792L16.6511 41.7042L27.3761 30.9792C29.0661 29.287 29.0661 26.5418 27.3761 24.8497C25.684 23.1597 22.9388 23.1597 21.2445 24.854L16.6468 29.443L12.0535 24.8497C10.3635 23.1597 7.61832 23.1597 5.92612 24.8497ZM16.6511 0.166992C21.4395 0.166992 25.3178 4.04529 25.3178 8.83369C25.3178 13.622 21.4395 17.5003 16.6511 17.5003C11.8628 17.5003 7.98452 13.622 7.98452 8.83369C7.98452 4.04529 11.8628 0.166992 16.6511 0.166992ZM16.6511 4.50029C14.257 4.50029 12.3178 6.43949 12.3178 8.83369C12.3178 11.2278 14.257 13.167 16.6511 13.167C19.0453 13.167 20.9845 11.2278 20.9845 8.83369C20.9845 6.43949 19.0453 4.50029 16.6511 4.50029Z" fill="#FE5000"/>
</svg>
