<svg width="19" height="19" viewBox="0 0 19 19" fill="none" xmlns="http://www.w3.org/2000/svg">
<path d="M6.01206 13.1066C6.84407 13.9373 7.72229 14.6872 8.64674 15.3563C9.57119 16.0255 10.4956 16.5562 11.4201 16.9484C12.3445 17.3407 13.2199 17.5368 14.0461 17.5368C14.6065 17.5368 15.1294 17.4359 15.6148 17.234C16.1001 17.0321 16.5392 16.7148 16.9321 16.2822C17.1632 16.0284 17.3452 15.7544 17.4781 15.4602C17.611 15.1718 17.6775 14.8804 17.6775 14.5863C17.6775 14.367 17.6341 14.1594 17.5475 13.9633C17.4608 13.7614 17.3134 13.5883 17.1054 13.4441L14.4448 11.5578C14.2425 11.4194 14.0548 11.3155 13.8814 11.2463C13.7081 11.1771 13.5434 11.1425 13.3874 11.1425C13.191 11.1425 13.0003 11.1973 12.8154 11.3069C12.6305 11.4107 12.4399 11.5607 12.2434 11.7568L11.6281 12.3625C11.5414 12.4548 11.4316 12.5009 11.2988 12.5009C11.2294 12.5009 11.163 12.4894 11.0994 12.4663C11.0416 12.4433 10.9925 12.4231 10.9521 12.4058C10.6805 12.2616 10.3339 12.0135 9.91208 11.6616C9.4903 11.304 9.06563 10.9117 8.63807 10.4849C8.2163 10.058 7.82629 9.63402 7.46807 9.21292C7.10985 8.79182 6.8614 8.4486 6.72273 8.18325C6.69962 8.1371 6.67651 8.08519 6.6534 8.0275C6.63607 7.96405 6.6274 7.90059 6.6274 7.83714C6.6274 7.71024 6.67073 7.60352 6.7574 7.51699L7.37274 6.88534C7.5634 6.68922 7.71363 6.49886 7.8234 6.31427C7.93318 6.12967 7.98807 5.93931 7.98807 5.74319C7.98807 5.58744 7.95052 5.42304 7.8754 5.24998C7.80607 5.07693 7.69918 4.88945 7.55474 4.68756L5.69139 2.06579C5.54117 1.85812 5.36206 1.70814 5.15406 1.61585C4.94606 1.51778 4.7265 1.46875 4.49539 1.46875C3.90027 1.46875 3.34272 1.71968 2.82271 2.22154C2.40093 2.62533 2.09182 3.07238 1.89538 3.5627C1.70471 4.04726 1.60938 4.56642 1.60938 5.12019C1.60938 5.95085 1.80293 6.82477 2.19004 7.74196C2.57716 8.65338 3.10294 9.56768 3.76739 10.4849C4.43183 11.4021 5.18006 12.276 6.01206 13.1066Z" stroke="#AAADB3" stroke-width="2"/>
</svg>
