<svg width="36" height="44" viewBox="0 0 36 44" fill="none" xmlns="http://www.w3.org/2000/svg">
<path d="M4.99931 4.66631V39.333H30.9993V12.9603L22.7053 4.66631H4.99931ZM2.83271 0.333008H24.4993L34.6978 10.5315C35.1042 10.9377 35.3326 11.4888 35.3327 12.0633V41.4997C35.3327 42.0743 35.1044 42.6254 34.6981 43.0317C34.2918 43.4381 33.7406 43.6663 33.166 43.6663H2.83271C2.25801 43.6663 1.70691 43.4381 1.30061 43.0317C0.894313 42.6254 0.666016 42.0743 0.666016 41.4997V2.49971C0.666016 1.92501 0.894313 1.37391 1.30061 0.967607C1.70691 0.561307 2.25801 0.333008 2.83271 0.333008ZM9.33271 21.9997H26.666V34.9997H9.33271V21.9997Z" fill="#FE5000"/>
</svg>
