<svg width="125" height="36" viewBox="0 0 125 36" fill="none" xmlns="http://www.w3.org/2000/svg">
<path d="M41.0947 24.6736H42.4917V30.0976L46.5984 24.6736H47.9157V32.315H46.5187V26.9004L42.4167 32.315H41.0947V24.6736Z" fill="#2A2A27"/>
<path d="M49.5762 26.4822H50.9404V28.8543H53.8751V26.4822H55.2392V32.314H53.8751V30.0076H50.9404V32.314H49.5762V26.4822Z" fill="#2A2A27"/>
<path d="M60.7282 30.5903C60.7359 30.4811 60.7164 30.3717 60.6714 30.2718C60.6264 30.172 60.5573 30.0849 60.4703 30.0184C60.2229 29.872 59.9366 29.8049 59.6499 29.8262H58.0466V31.3216H59.6077C60.3578 31.3216 60.7282 31.0779 60.7282 30.5903ZM58.0466 28.9214H59.4764C60.1796 28.9214 60.5359 28.6776 60.5359 28.1901C60.5359 27.7025 60.1796 27.4775 59.4764 27.4775H58.0466V28.9214ZM62.0501 30.6747C62.0614 30.9104 62.0133 31.1451 61.91 31.3573C61.8068 31.5695 61.6519 31.7523 61.4595 31.8889C60.9358 32.2069 60.3269 32.3558 59.7155 32.3155H56.748V26.4696H59.5936C60.1773 26.4363 60.7582 26.5714 61.2673 26.8587C61.4568 26.9752 61.6122 27.1398 61.7176 27.3358C61.823 27.5317 61.8746 27.7521 61.8673 27.9745C61.8725 28.2505 61.7905 28.5212 61.6329 28.748C61.4635 28.9755 61.2348 29.1523 60.9719 29.259C61.2901 29.3257 61.5739 29.5043 61.7717 29.7623C61.9695 30.0203 62.0683 30.3407 62.0501 30.6653" fill="#2A2A27"/>
<path d="M64.5774 27.899C64.2721 28.1628 64.0751 28.5301 64.0242 28.9304H67.3386C67.29 28.6358 67.1646 28.3593 66.9751 28.1287C66.7855 27.898 66.5384 27.7215 66.2588 27.6169C65.9792 27.5123 65.677 27.4833 65.3826 27.5328C65.0882 27.5824 64.812 27.7087 64.5821 27.899H64.5774ZM68.6137 29.8351H64.057C64.1249 30.2448 64.3504 30.6116 64.6852 30.8571C65.0534 31.1164 65.4963 31.2481 65.9463 31.2321C66.2391 31.2416 66.5306 31.1902 66.8025 31.0813C67.0745 30.9724 67.3208 30.8082 67.5261 30.5993L68.2574 31.4384C67.9921 31.7565 67.65 32.0018 67.2636 32.151C66.833 32.3162 66.3746 32.3974 65.9135 32.3901C65.3263 32.4034 64.7449 32.2713 64.2211 32.0057C63.7492 31.768 63.3567 31.3983 63.0913 30.9415C62.8328 30.4702 62.6973 29.9414 62.6973 29.4039C62.6973 28.8663 62.8328 28.3375 63.0913 27.8662C63.3416 27.4173 63.7137 27.0484 64.1648 26.802C64.6395 26.545 65.1722 26.4143 65.7119 26.4223C66.2439 26.4115 66.7693 26.5409 67.2355 26.7973C67.6788 27.0493 68.0401 27.4236 68.2762 27.8756C68.5327 28.3603 68.6618 28.9024 68.6512 29.4507C68.6512 29.5445 68.6512 29.6804 68.6512 29.8539" fill="#2A2A27"/>
<path d="M70.8264 32.006C70.3578 31.7654 69.9675 31.3963 69.7013 30.9418C69.4368 30.4717 69.2979 29.9413 69.2979 29.4018C69.2979 28.8624 69.4368 28.332 69.7013 27.8618C69.9672 27.4099 70.3556 27.0426 70.8217 26.8024C71.3254 26.5421 71.8862 26.4115 72.4531 26.4226C72.9774 26.4097 73.4966 26.529 73.9626 26.7696C74.3856 26.9939 74.7281 27.3446 74.9424 27.7728L73.8923 28.3822C73.7397 28.1289 73.523 27.9203 73.2641 27.7775C72.9277 27.6051 72.5462 27.5409 72.1719 27.5938C71.7976 27.6467 71.4488 27.814 71.1733 28.0728C70.8512 28.4397 70.6736 28.9113 70.6736 29.3995C70.6736 29.8877 70.8512 30.3593 71.1733 30.7262C71.3398 30.8915 71.5385 31.0209 71.757 31.1064C71.9755 31.1918 72.2093 31.2316 72.4437 31.2231C72.7312 31.2248 73.0146 31.1555 73.2688 31.0215C73.5277 30.8787 73.7444 30.67 73.897 30.4168L74.9471 31.0262C74.7266 31.4543 74.3818 31.8057 73.958 32.0341C73.4965 32.2789 72.9801 32.4016 72.4578 32.3904C71.8919 32.4007 71.3325 32.2685 70.8311 32.006" fill="#2A2A27"/>
<path d="M80.3748 27.6402H78.3308V32.314H76.9666V27.6402H74.918V26.4822H80.3748V27.6402Z" fill="#2A2A27"/>
<path d="M81.041 26.4822H82.4052V30.3263L85.6259 26.4822H86.8682V32.314H85.504V28.4699L82.2974 32.314H81.041V26.4822Z" fill="#2A2A27"/>
<path d="M94.7674 31.1561V33.6548H93.4923V32.314H88.373V26.4822H89.7373V31.1561H92.5219V26.4822H93.8861V31.1561H94.7674Z" fill="#2A2A27"/>
<path d="M95.6543 26.4822H97.0185V30.3263L100.239 26.4822H101.481V32.314H100.117V28.4699L96.9107 32.314H95.6543V26.4822Z" fill="#2A2A27"/>
<path d="M102.985 26.4822H104.35V30.3263L107.57 26.4822H108.817V32.314H107.453V28.4699L104.242 32.314H102.985V26.4822Z" fill="#2A2A27"/>
<path d="M16.0422 24.9476C16.0424 25.489 15.8916 26.0198 15.6067 26.4802C15.3218 26.9407 14.9142 27.3126 14.4296 27.5541L10.2104 29.6637V23.4474C10.2102 22.906 10.361 22.3752 10.6459 21.9148C10.9308 21.4543 11.3385 21.0824 11.8231 20.8409L16.0422 18.7313V24.9476ZM24.7947 20.5737C24.7947 21.1163 24.6434 21.6482 24.3577 22.1095C24.0719 22.5708 23.6632 22.9432 23.1773 23.1849L18.9581 25.2945V11.0524C18.9582 10.5104 19.1091 9.97909 19.3939 9.51793C19.6787 9.05677 20.0862 8.68396 20.5708 8.44122L24.79 6.33164L24.7947 20.5737ZM30.228 0.499802H4.77235C3.5074 0.502279 2.29498 1.00587 1.40052 1.90033C0.506072 2.79478 0.00247786 4.00721 0 5.27215V30.7278C0.00247786 31.9928 0.506072 33.2052 1.40052 34.0997C2.29498 34.9941 3.5074 35.4977 4.77235 35.5002H30.228C31.4917 35.4965 32.7025 34.9922 33.5952 34.0977C34.4879 33.2033 34.9898 31.9915 34.991 30.7278V5.27215C34.9898 4.00682 34.4866 2.7937 33.5919 1.89898C32.6971 1.00426 31.484 0.501043 30.2187 0.499802" fill="#FF6600"/>
<path d="M48.3326 9.29296V5.73481C48.3391 5.30683 48.4674 4.88954 48.7023 4.53174C48.9372 4.17395 49.2691 3.89041 49.6592 3.71427L53.1283 2.07817C53.1283 6.24734 53.1283 10.415 53.1283 14.581C53.1584 15.5183 52.984 16.4509 52.6173 17.3141C52.3123 17.9569 51.863 18.5207 51.3043 18.9614C50.7457 19.4021 50.0929 19.7079 49.3967 19.855C48.707 20.0416 47.9968 20.1423 47.2824 20.155C46.2276 20.155 45.4073 20.155 44.3759 20.155H41.1553V16.2077H46.3636C46.8591 16.2046 47.3345 16.0111 47.6914 15.6673C48.0482 15.3235 48.2593 14.8557 48.281 14.3607C48.3202 14.0497 48.339 13.7365 48.3372 13.4231L48.3326 9.29296ZM120.208 2.08756V12.2886C119.974 11.9135 114.217 2.08756 114.217 2.08756H109.426V20.1737H114.217V9.96334C114.283 10.0665 119.993 19.8081 120.208 20.1644H125V2.08756H120.208ZM62.7105 16.6203C60.7838 16.6203 59.7149 15.2373 59.7149 13.5121V2.08756H54.9238V12.2651C54.9238 14.281 55.1676 16.3343 56.5224 17.9704C57.0177 18.5831 57.6256 19.0954 58.3132 19.4799C59.4196 20.08 61.412 20.3753 62.7105 20.3753C64.0091 20.3753 65.9921 20.08 67.1079 19.4799C67.7947 19.0942 68.4023 18.582 68.8987 17.9704C70.2535 16.3343 70.4973 14.281 70.4973 12.2651V2.08756H65.7062V13.5262C65.7062 15.2514 64.6373 16.6343 62.7105 16.6343V16.6203ZM95.3763 14.4122L98.0485 8.08346L100.721 14.4122H95.3763ZM103.144 20.1644H108.231L100.622 2.08756H95.5216L87.8896 20.1737H92.9714L94.0121 17.7079H102.127L103.144 20.1644ZM87.5802 12.9074C87.3597 12.1737 86.9276 11.5213 86.3379 11.0322L86.0426 10.8072C85.3153 10.3119 84.4984 9.96317 83.6376 9.7805C82.4328 9.51328 81.214 9.31171 79.9998 9.05856C79.2668 8.9671 78.5475 8.78765 77.8574 8.52413C77.6737 8.45169 77.5086 8.33921 77.374 8.19485C77.2394 8.05049 77.1386 7.87791 77.0792 7.68968C76.997 7.37302 76.997 7.04062 77.0792 6.72396C77.1717 6.443 77.3435 6.19479 77.5739 6.00929C77.8043 5.8238 78.0835 5.70892 78.3777 5.67853C79.4981 5.42537 80.6608 5.42537 81.7812 5.67853C81.9866 5.69667 82.1864 5.75558 82.3688 5.85181C82.5512 5.94803 82.7125 6.07963 82.8435 6.23894C82.9744 6.39826 83.0723 6.5821 83.1314 6.77967C83.1904 6.97725 83.2096 7.1846 83.1876 7.38965C83.1876 7.54904 83.1876 7.57248 83.1876 7.74124H87.8756C87.8883 7.27203 87.8742 6.80247 87.8334 6.33485C87.7707 5.5962 87.5147 4.88708 87.0908 4.27889C86.667 3.6707 86.0904 3.1849 85.4191 2.87044C84.1771 2.26796 82.8232 1.93108 81.4437 1.88128C80.5446 1.82033 79.6425 1.82033 78.7434 1.88128C77.3641 1.93217 76.0103 2.269 74.768 2.87044C74.0967 3.1849 73.5201 3.6707 73.0963 4.27889C72.6724 4.88708 72.4163 5.5962 72.3537 6.33485C72.3256 6.61993 72.3131 6.90632 72.3162 7.19276C72.2995 7.8564 72.3913 8.51831 72.5881 9.15233C72.8104 9.8864 73.2441 10.5387 73.8351 11.0275C73.9335 11.1072 74.0273 11.1775 74.1351 11.2525C74.862 11.7485 75.679 12.0973 76.5401 12.2792C77.7449 12.5464 78.9637 12.748 80.1732 12.9965C80.9259 13.0911 81.6652 13.272 82.3766 13.5356C82.5614 13.6059 82.7277 13.7177 82.8626 13.8624C82.9975 14.007 83.0975 14.1807 83.1548 14.37C83.1918 14.5237 83.2123 14.6808 83.2157 14.8388C83.2464 15.2502 83.1174 15.6576 82.8555 15.9763C82.5935 16.2949 82.2189 16.5004 81.8093 16.5499C80.689 16.8031 79.5262 16.8031 78.4059 16.5499C78.2004 16.5318 78.0007 16.4729 77.8183 16.3767C77.6359 16.2805 77.4745 16.1488 77.3436 15.9895C77.2127 15.8302 77.1148 15.6464 77.0557 15.4488C76.9966 15.2512 76.9775 15.0439 76.9995 14.8388V14.4872H72.3115C72.2988 14.9565 72.3129 15.426 72.3537 15.8936C72.4163 16.6323 72.6724 17.3414 73.0963 17.9496C73.5201 18.5578 74.0967 19.0436 74.768 19.358C76.0103 19.9595 77.3641 20.2963 78.7434 20.3472C79.6425 20.4081 80.5446 20.4081 81.4437 20.3472C82.8232 20.2974 84.1771 19.9605 85.4191 19.358C86.0904 19.0436 86.667 18.5578 87.0908 17.9496C87.5147 17.3414 87.7707 16.6323 87.8334 15.8936C87.953 14.8987 87.8733 13.8899 87.599 12.9261" fill="#FF6600"/>
</svg>
