<svg width="12" height="12" viewBox="0 0 12 12" fill="none" xmlns="http://www.w3.org/2000/svg">
<path d="M3.28803 8.69144C3.90939 9.31179 4.56526 9.87184 5.25566 10.3716C5.94606 10.8713 6.63646 11.2676 7.32686 11.5606C8.01726 11.8535 8.67098 12 9.28803 12C9.70658 12 10.0971 11.9246 10.4595 11.7738C10.822 11.623 11.1499 11.3861 11.4434 11.063C11.616 10.8735 11.7519 10.6688 11.8511 10.4491C11.9504 10.2337 12 10.0162 12 9.79645C12 9.63274 11.9676 9.47765 11.9029 9.33118C11.8382 9.1804 11.7282 9.05116 11.5728 8.94346L9.58576 7.53473C9.43474 7.43134 9.2945 7.3538 9.16505 7.3021C9.0356 7.2504 8.91262 7.22456 8.79612 7.22456C8.64941 7.22456 8.50701 7.26548 8.36893 7.34733C8.23085 7.42488 8.08846 7.53689 7.94175 7.68336L7.4822 8.1357C7.41748 8.20463 7.33549 8.2391 7.23625 8.2391C7.18447 8.2391 7.13484 8.23048 7.08738 8.21325C7.04423 8.19602 7.00755 8.18094 6.97735 8.16801C6.77454 8.06031 6.51564 7.87507 6.20065 7.61228C5.88565 7.34518 5.5685 7.05223 5.24919 6.73344C4.9342 6.41465 4.64293 6.09801 4.3754 5.78352C4.10787 5.46904 3.92233 5.21271 3.81877 5.01454C3.80151 4.98008 3.78425 4.9413 3.76699 4.89822C3.75405 4.85083 3.74757 4.80345 3.74757 4.75606C3.74757 4.66128 3.77994 4.58158 3.84466 4.51696L4.30421 4.04523C4.4466 3.89876 4.55879 3.7566 4.64078 3.61874C4.72276 3.48088 4.76375 3.33872 4.76375 3.19225C4.76375 3.07593 4.73571 2.95315 4.67961 2.82391C4.62783 2.69467 4.548 2.55466 4.44013 2.40388L3.04854 0.44588C2.93635 0.290792 2.80259 0.178783 2.64725 0.109855C2.49191 0.0366182 2.32794 0 2.15534 0C1.7109 0 1.2945 0.187399 0.906149 0.562197C0.591154 0.863759 0.360302 1.19763 0.213592 1.56381C0.0711974 1.92569 0 2.31341 0 2.72698C0 3.34733 0.144552 4 0.433657 4.68498C0.722762 5.36564 1.11543 6.04847 1.61165 6.73344C2.10787 7.41842 2.66667 8.07108 3.28803 8.69144Z" fill="#AAADB3"/>
</svg>
