<svg width="34" height="46" viewBox="0 0 34 46" fill="none" xmlns="http://www.w3.org/2000/svg">
<path d="M17.0016 14.4163L21.5862 25.4403L33.4856 26.3937L24.4202 34.159L27.1892 45.7723L17.0016 39.5497L6.81388 45.7723L9.58288 34.159L0.517578 26.3937L12.4169 25.4403L17.0016 14.4163ZM17.0016 25.6982L15.4004 29.5483L11.2491 29.8798L14.4124 32.5903L13.4439 36.6442L17.0016 34.471L20.5571 36.6442L19.5907 32.5925L22.7519 29.8798L18.6027 29.5483L17.0016 25.6982ZM8.33488 0.333008V19.833H4.00158V0.333008H8.33488ZM30.0016 0.333008V19.833H25.6682V0.333008H30.0016ZM19.1682 0.333008V11.1663H14.8349V0.333008H19.1682Z" fill="#FE5000"/>
</svg>
