<svg width="45" height="44" viewBox="0 0 45 44" fill="none" xmlns="http://www.w3.org/2000/svg">
<path d="M10.0194 34.9991C10.467 33.7305 11.2971 32.632 12.3953 31.8548C13.4935 31.0778 14.8057 30.6605 16.151 30.6605C17.4964 30.6605 18.8085 31.0778 19.9067 31.8548C21.0049 32.632 21.8351 33.7305 22.2827 34.9991H42.151C43.3477 34.9991 44.3177 35.9692 44.3177 37.1658C44.3177 38.3624 43.3477 39.3325 42.151 39.3325H22.2827C21.8351 40.6011 21.0049 41.6997 19.9067 42.4767C18.8085 43.2538 17.4964 43.6711 16.151 43.6711C14.8057 43.6711 13.4935 43.2538 12.3953 42.4767C11.2971 41.6997 10.467 40.6011 10.0194 39.3325H3.15097C1.95437 39.3325 0.984375 38.3624 0.984375 37.1658C0.984375 35.9692 1.95437 34.9991 3.15097 34.9991H10.0194ZM23.0194 19.8325C23.467 18.5638 24.2971 17.4653 25.3953 16.6882C26.4935 15.9111 27.8057 15.4938 29.151 15.4938C30.4964 15.4938 31.8085 15.9111 32.9067 16.6882C34.0049 17.4653 34.8351 18.5638 35.2827 19.8325H42.151C43.3477 19.8325 44.3177 20.8025 44.3177 21.9991C44.3177 23.1957 43.3477 24.1658 42.151 24.1658H35.2827C34.8351 25.4344 34.0049 26.533 32.9067 27.3101C31.8085 28.0871 30.4964 28.5044 29.151 28.5044C27.8057 28.5044 26.4935 28.0871 25.3953 27.3101C24.2971 26.533 23.467 25.4344 23.0194 24.1658H3.15097C1.95437 24.1658 0.984375 23.1957 0.984375 21.9991C0.984375 20.8025 1.95437 19.8325 3.15097 19.8325H23.0194ZM10.0194 4.66585C10.467 3.39715 11.2971 2.29865 12.3953 1.52155C13.4935 0.744447 14.8057 0.327148 16.151 0.327148C17.4964 0.327148 18.8085 0.744447 19.9067 1.52155C21.0049 2.29865 21.8351 3.39715 22.2827 4.66585H42.151C43.3477 4.66585 44.3177 5.63585 44.3177 6.83255C44.3177 8.02915 43.3477 8.99915 42.151 8.99915H22.2827C21.8351 10.2678 21.0049 11.3664 19.9067 12.1434C18.8085 12.9205 17.4964 13.3378 16.151 13.3378C14.8057 13.3378 13.4935 12.9205 12.3953 12.1434C11.2971 11.3664 10.467 10.2678 10.0194 8.99915H3.15097C1.95437 8.99915 0.984375 8.02915 0.984375 6.83255C0.984375 5.63585 1.95437 4.66585 3.15097 4.66585H10.0194ZM16.151 8.99915C16.7257 8.99915 17.2768 8.77085 17.6831 8.36455C18.0894 7.95825 18.3177 7.40715 18.3177 6.83255C18.3177 6.25785 18.0894 5.70675 17.6831 5.30045C17.2768 4.89415 16.7257 4.66585 16.151 4.66585C15.5764 4.66585 15.0253 4.89415 14.619 5.30045C14.2126 5.70675 13.9844 6.25785 13.9844 6.83255C13.9844 7.40715 14.2126 7.95825 14.619 8.36455C15.0253 8.77085 15.5764 8.99915 16.151 8.99915ZM29.151 24.1658C29.7257 24.1658 30.2768 23.9375 30.6831 23.5312C31.0894 23.1249 31.3177 22.5738 31.3177 21.9991C31.3177 21.4245 31.0894 20.8734 30.6831 20.4671C30.2768 20.0607 29.7257 19.8325 29.151 19.8325C28.5764 19.8325 28.0253 20.0607 27.619 20.4671C27.2126 20.8734 26.9844 21.4245 26.9844 21.9991C26.9844 22.5738 27.2126 23.1249 27.619 23.5312C28.0253 23.9375 28.5764 24.1658 29.151 24.1658ZM16.151 39.3325C16.7257 39.3325 17.2768 39.1042 17.6831 38.6979C18.0894 38.2915 18.3177 37.7404 18.3177 37.1658C18.3177 36.5912 18.0894 36.0401 17.6831 35.6338C17.2768 35.2275 16.7257 34.9991 16.151 34.9991C15.5764 34.9991 15.0253 35.2275 14.619 35.6338C14.2126 36.0401 13.9844 36.5912 13.9844 37.1658C13.9844 37.7404 14.2126 38.2915 14.619 38.6979C15.0253 39.1042 15.5764 39.3325 16.151 39.3325Z" fill="#FE5000"/>
</svg>
